<svg width="320" height="105" viewBox="0 0 320 105" version="1.1" xmlns="http://www.w3.org/2000/svg" xmlns:xlink="http://www.w3.org/1999/xlink" xml:space="preserve" xmlns:serif="http://www.serif.com/" style="fill-rule:evenodd;clip-rule:evenodd;stroke-linejoin:round;stroke-miterlimit:2;"><g id="Logo"></g><rect id="Prancheta1" x="0" y="0" width="320" height="105" style="fill:none;"/><clipPath id="_clip1"><rect x="0" y="0" width="320" height="105"/></clipPath><g clip-path="url(#_clip1)"><g><path d="M130.018,0.671c0,-0.447 0.224,-0.671 0.671,-0.671l5.031,0c0.448,0 0.671,0.224 0.671,0.671l0,45.617c0,0.447 -0.223,0.671 -0.671,0.671l-5.769,-0c-0.358,-0 -0.604,-0.179 -0.738,-0.537l-11.404,-30.657c-0.045,-0.09 -0.112,-0.123 -0.201,-0.101c-0.09,0.022 -0.135,0.078 -0.135,0.168l0.068,30.456c-0,0.447 -0.224,0.671 -0.671,0.671l-5.099,-0c-0.447,-0 -0.67,-0.224 -0.67,-0.671l-0,-45.617c-0,-0.447 0.223,-0.671 0.67,-0.671l5.702,0c0.358,0 0.604,0.179 0.738,0.537l11.472,30.657c0.044,0.134 0.112,0.19 0.201,0.168c0.089,-0.023 0.134,-0.101 0.134,-0.235l0,-30.456Z" style="fill-rule:nonzero;"/><path d="M165.975,31.865c0,0.447 -0.223,0.671 -0.671,0.671l-15.161,-0c-0.179,-0 -0.268,0.089 -0.268,0.268l0,3.623c0,1.61 0.447,2.929 1.342,3.958c0.894,1.028 2.057,1.542 3.488,1.542c1.252,0 2.303,-0.38 3.153,-1.14c0.85,-0.76 1.386,-1.744 1.61,-2.952c0.134,-0.357 0.38,-0.536 0.738,-0.536l4.964,0.268c0.224,0 0.392,0.067 0.503,0.201c0.112,0.134 0.146,0.291 0.101,0.47c-0.313,2.907 -1.42,5.177 -3.321,6.809c-1.9,1.632 -4.483,2.448 -7.748,2.448c-3.444,0 -6.183,-0.961 -8.218,-2.884c-2.035,-1.923 -3.052,-4.495 -3.052,-7.715l-0,-13.953c-0,-3.176 1.017,-5.747 3.052,-7.715c2.035,-1.968 4.774,-2.952 8.218,-2.952c3.488,0 6.239,0.984 8.251,2.952c2.013,1.968 3.019,4.539 3.019,7.715l0,8.922Zm-11.27,-14.021c-1.431,0 -2.594,0.515 -3.488,1.543c-0.895,1.029 -1.342,2.348 -1.342,3.958l0,3.556c0,0.179 0.089,0.268 0.268,0.268l9.191,0c0.179,0 0.268,-0.089 0.268,-0.268l0,-3.556c0,-1.61 -0.447,-2.929 -1.341,-3.958c-0.895,-1.028 -2.08,-1.543 -3.556,-1.543Z" style="fill-rule:nonzero;"/><path d="M187.442,13.484c0,-0.447 0.224,-0.671 0.671,-0.671l5.098,0c0.448,0 0.671,0.224 0.671,0.671l0,32.469c0,4.695 -1.073,8.329 -3.22,10.901c-2.147,2.571 -5.836,3.857 -11.069,3.857l-1.811,-0.067c-0.447,-0.045 -0.671,-0.291 -0.671,-0.738l0,-4.293c0,-0.448 0.246,-0.671 0.738,-0.671c3.667,0.134 6.183,-0.593 7.547,-2.18c1.364,-1.588 2.046,-4.059 2.046,-7.413l0,-1.409c0,-0.089 -0.033,-0.145 -0.101,-0.168c-0.067,-0.022 -0.145,0.011 -0.234,0.101c-1.521,2.057 -3.69,3.086 -6.507,3.086c-2.952,-0 -5.222,-0.951 -6.81,-2.851c-1.587,-1.901 -2.381,-4.484 -2.381,-7.748l-0,-13.417c-0,-3.31 0.805,-5.915 2.415,-7.816c1.61,-1.9 3.869,-2.851 6.776,-2.851c2.906,0 5.076,1.029 6.507,3.086c0.089,0.09 0.167,0.112 0.234,0.067c0.068,-0.044 0.101,-0.111 0.101,-0.201l0,-1.744Zm-4.763,27.907c1.431,-0 2.583,-0.503 3.455,-1.51c0.872,-1.006 1.308,-2.314 1.308,-3.924l0,-12.612c0,-1.61 -0.436,-2.929 -1.308,-3.958c-0.872,-1.028 -2.024,-1.543 -3.455,-1.543c-1.431,0 -2.594,0.515 -3.488,1.543c-0.895,1.029 -1.342,2.348 -1.342,3.958l0,12.612c0,1.61 0.447,2.918 1.342,3.924c0.894,1.007 2.057,1.51 3.488,1.51Z" style="fill-rule:nonzero;"/><path d="M211.123,47.495c-3.489,0 -6.25,-0.972 -8.285,-2.918c-2.035,-1.945 -3.052,-4.528 -3.052,-7.748l-0,-13.886c-0,-3.176 1.028,-5.747 3.085,-7.715c2.058,-1.968 4.808,-2.952 8.252,-2.952c3.488,0 6.261,0.984 8.318,2.952c2.057,1.968 3.086,4.539 3.086,7.715l-0,13.886c-0,3.22 -1.029,5.803 -3.086,7.748c-2.057,1.946 -4.83,2.918 -8.318,2.918Zm-0,-5.635c1.431,0 2.616,-0.503 3.555,-1.509c0.939,-1.006 1.409,-2.337 1.409,-3.991l-0,-13.015c-0,-1.61 -0.47,-2.929 -1.409,-3.958c-0.939,-1.028 -2.124,-1.543 -3.555,-1.543c-1.431,0 -2.605,0.515 -3.522,1.543c-0.917,1.029 -1.375,2.348 -1.375,3.958l-0,13.015c-0,1.654 0.458,2.985 1.375,3.991c0.917,1.006 2.091,1.509 3.522,1.509Z" style="fill-rule:nonzero;"/><path d="M239.499,47.495c-3.443,0 -6.183,-0.961 -8.218,-2.884c-2.034,-1.923 -3.052,-4.517 -3.052,-7.782l0,-13.886c0,-3.176 1.018,-5.747 3.052,-7.715c2.035,-1.968 4.775,-2.952 8.218,-2.952c2.281,0 4.282,0.436 6.004,1.309c1.722,0.872 3.041,2.057 3.958,3.555c0.917,1.498 1.375,3.186 1.375,5.065l0,0.872c0,0.447 -0.223,0.671 -0.67,0.671l-5.099,0.201c-0.447,-0 -0.671,-0.224 -0.671,-0.671l0,-0.671c0,-1.297 -0.469,-2.415 -1.408,-3.354c-0.94,-0.939 -2.102,-1.409 -3.489,-1.409c-1.431,0 -2.594,0.515 -3.488,1.543c-0.895,1.029 -1.342,2.348 -1.342,3.958l0,13.082c0,1.61 0.447,2.929 1.342,3.958c0.894,1.028 2.057,1.542 3.488,1.542c1.387,0 2.549,-0.469 3.489,-1.408c0.939,-0.939 1.408,-2.058 1.408,-3.354l0,-0.671c0,-0.448 0.224,-0.671 0.671,-0.671l5.099,0.067c0.447,-0 0.67,0.224 0.67,0.671l0,1.006c0,2.907 -1.028,5.288 -3.085,7.144c-2.058,1.856 -4.808,2.784 -8.252,2.784Z" style="fill-rule:nonzero;"/><path d="M281.494,47.495c-3.489,0 -6.25,-0.972 -8.285,-2.918c-2.035,-1.945 -3.052,-4.528 -3.052,-7.748l-0,-13.886c-0,-3.176 1.028,-5.747 3.085,-7.715c2.058,-1.968 4.808,-2.952 8.252,-2.952c3.488,0 6.261,0.984 8.318,2.952c2.057,1.968 3.086,4.539 3.086,7.715l0,13.886c0,3.22 -1.029,5.803 -3.086,7.748c-2.057,1.946 -4.83,2.918 -8.318,2.918Zm-0,-5.635c1.431,0 2.616,-0.503 3.555,-1.509c0.939,-1.006 1.409,-2.337 1.409,-3.991l0,-13.015c0,-1.61 -0.47,-2.929 -1.409,-3.958c-0.939,-1.028 -2.124,-1.543 -3.555,-1.543c-1.431,0 -2.605,0.515 -3.522,1.543c-0.917,1.029 -1.375,2.348 -1.375,3.958l-0,13.015c-0,1.654 0.458,2.985 1.375,3.991c0.917,1.006 2.091,1.509 3.522,1.509Z" style="fill-rule:nonzero;"/><path d="M308.931,47.361c-3.354,0 -6.004,-0.816 -7.949,-2.448c-1.946,-1.633 -2.918,-3.835 -2.918,-6.608l-0,-0.604c-0,-0.447 0.223,-0.671 0.67,-0.671l4.763,0c0.448,0 0.671,0.224 0.671,0.671l0,0.47c0,1.207 0.47,2.225 1.409,3.052c0.939,0.827 2.102,1.241 3.488,1.241c1.342,0 2.427,-0.402 3.254,-1.207c0.827,-0.805 1.241,-1.834 1.241,-3.086c-0,-0.984 -0.291,-1.811 -0.872,-2.482c-0.582,-0.671 -1.264,-1.197 -2.046,-1.577c-0.783,-0.38 -1.979,-0.905 -3.589,-1.576c-1.744,-0.761 -3.187,-1.498 -4.327,-2.214c-1.141,-0.716 -2.158,-1.744 -3.052,-3.086c-0.895,-1.342 -1.342,-3.041 -1.342,-5.098c-0,-3.041 0.95,-5.412 2.851,-7.111c1.901,-1.7 4.461,-2.549 7.681,-2.549c3.31,-0 5.915,0.872 7.815,2.616c1.901,1.744 2.851,4.114 2.851,7.111l0,0.201c0,0.447 -0.223,0.671 -0.67,0.671l-4.629,-0c-0.447,-0 -0.671,-0.224 -0.671,-0.671l-0,-0.47c-0,-1.207 -0.425,-2.236 -1.275,-3.085c-0.849,-0.85 -1.945,-1.275 -3.287,-1.275c-1.386,0 -2.482,0.425 -3.287,1.275c-0.805,0.849 -1.207,1.878 -1.207,3.085c-0,0.94 0.268,1.722 0.805,2.348c0.536,0.627 1.185,1.13 1.945,1.51c0.76,0.38 1.968,0.928 3.623,1.643c1.833,0.805 3.354,1.577 4.561,2.315c1.208,0.738 2.27,1.777 3.187,3.119c0.917,1.342 1.375,3.019 1.375,5.031c0,2.907 -0.995,5.211 -2.985,6.91c-1.99,1.7 -4.685,2.549 -8.084,2.549Z" style="fill-rule:nonzero;"/><path d="M122.369,104.402c-3.443,-0 -6.182,-0.962 -8.217,-2.884c-2.034,-1.923 -3.051,-4.517 -3.051,-7.781l-0,-13.885c-0,-3.174 1.017,-5.746 3.051,-7.713c2.035,-1.968 4.774,-2.951 8.217,-2.951c2.281,-0 4.282,0.436 6.003,1.308c1.722,0.872 3.041,2.057 3.958,3.555c0.916,1.498 1.375,3.186 1.375,5.064l-0,0.872c-0,0.447 -0.224,0.67 -0.671,0.67l-5.098,0.202c-0.447,-0 -0.671,-0.224 -0.671,-0.671l0,-0.671c0,-1.297 -0.469,-2.415 -1.408,-3.354c-0.939,-0.939 -2.102,-1.408 -3.488,-1.408c-1.431,-0 -2.594,0.514 -3.488,1.543c-0.894,1.028 -1.341,2.347 -1.341,3.957l-0,13.079c-0,1.61 0.447,2.929 1.341,3.958c0.894,1.028 2.057,1.543 3.488,1.543c1.386,-0 2.549,-0.47 3.488,-1.409c0.939,-0.939 1.408,-2.057 1.408,-3.354l0,-0.67c0,-0.448 0.224,-0.671 0.671,-0.671l5.098,0.067c0.447,-0 0.671,0.223 0.671,0.671l-0,1.006c-0,2.906 -1.029,5.287 -3.086,7.143c-2.057,1.856 -4.807,2.784 -8.25,2.784Z" style="fill-rule:nonzero;"/><path d="M150.138,104.402c-3.488,-0 -6.249,-0.973 -8.284,-2.918c-2.034,-1.945 -3.052,-4.528 -3.052,-7.747l0,-13.885c0,-3.174 1.029,-5.746 3.086,-7.713c2.057,-1.968 4.807,-2.951 8.25,-2.951c3.488,-0 6.26,0.983 8.317,2.951c2.057,1.967 3.086,4.539 3.086,7.713l-0,13.885c-0,3.219 -1.029,5.802 -3.086,7.747c-2.057,1.945 -4.829,2.918 -8.317,2.918Zm-0,-5.635c1.431,0 2.616,-0.503 3.555,-1.509c0.939,-1.006 1.408,-2.336 1.408,-3.991l0,-13.012c0,-1.61 -0.469,-2.929 -1.408,-3.957c-0.939,-1.029 -2.124,-1.543 -3.555,-1.543c-1.431,-0 -2.605,0.514 -3.522,1.543c-0.916,1.028 -1.375,2.347 -1.375,3.957l0,13.012c0,1.655 0.459,2.985 1.375,3.991c0.917,1.006 2.091,1.509 3.522,1.509Z" style="fill-rule:nonzero;"/><path d="M196.553,69.255c2.773,-0 4.908,0.995 6.406,2.985c1.498,1.989 2.247,4.773 2.247,8.35l-0,22.604c-0,0.448 -0.224,0.671 -0.671,0.671l-5.03,0c-0.447,0 -0.671,-0.223 -0.671,-0.671l-0,-22.134c-0,-1.968 -0.403,-3.499 -1.207,-4.595c-0.805,-1.095 -1.879,-1.643 -3.22,-1.643c-1.431,-0 -2.571,0.548 -3.421,1.643c-0.849,1.096 -1.274,2.605 -1.274,4.528l-0,22.201c-0,0.448 -0.224,0.671 -0.671,0.671l-5.031,0c-0.447,0 -0.67,-0.223 -0.67,-0.671l-0,-22.134c-0,-1.968 -0.403,-3.499 -1.208,-4.595c-0.805,-1.095 -1.878,-1.643 -3.219,-1.643c-1.431,-0 -2.571,0.548 -3.421,1.643c-0.85,1.096 -1.274,2.605 -1.274,4.528l-0,22.201c-0,0.448 -0.224,0.671 -0.671,0.671l-5.031,0c-0.447,0 -0.67,-0.223 -0.67,-0.671l-0,-32.799c-0,-0.447 0.223,-0.671 0.67,-0.671l5.031,0c0.447,0 0.671,0.224 0.671,0.671l-0,1.677c-0,0.089 0.033,0.156 0.1,0.201c0.067,0.045 0.146,0.022 0.235,-0.067c0.894,-0.984 1.923,-1.722 3.085,-2.213c1.163,-0.492 2.326,-0.738 3.488,-0.738c3.399,-0 5.836,1.498 7.311,4.494c0.045,0.089 0.112,0.123 0.202,0.1c0.089,-0.022 0.156,-0.123 0.201,-0.302c0.894,-1.52 2.034,-2.615 3.421,-3.286c1.386,-0.671 2.817,-1.006 4.292,-1.006Z" style="fill-rule:nonzero;"/><path d="M223.077,103.865c-0.402,0 -0.648,-0.201 -0.737,-0.604l-9.659,-45.61l-0,-0.134c-0,-0.403 0.201,-0.604 0.604,-0.604l5.567,0c0.447,0 0.693,0.201 0.738,0.604l6.372,34.811c0.044,0.09 0.089,0.134 0.134,0.134c0.044,0 0.089,-0.044 0.134,-0.134l6.238,-34.811c0.089,-0.403 0.335,-0.604 0.738,-0.604l5.366,0c0.491,0 0.693,0.246 0.603,0.738l-9.658,45.61c-0.045,0.403 -0.291,0.604 -0.738,0.604l-5.702,0Z" style="fill-rule:nonzero;"/><path d="M252.657,104.402c-3.488,-0 -6.249,-0.973 -8.283,-2.918c-2.035,-1.945 -3.052,-4.528 -3.052,-7.747l-0,-13.885c-0,-3.174 1.028,-5.746 3.085,-7.713c2.057,-1.968 4.807,-2.951 8.25,-2.951c3.488,-0 6.261,0.983 8.317,2.951c2.057,1.967 3.086,4.539 3.086,7.713l-0,13.885c-0,3.219 -1.029,5.802 -3.086,7.747c-2.056,1.945 -4.829,2.918 -8.317,2.918Zm0,-5.635c1.431,0 2.616,-0.503 3.555,-1.509c0.939,-1.006 1.409,-2.336 1.409,-3.991l-0,-13.012c-0,-1.61 -0.47,-2.929 -1.409,-3.957c-0.939,-1.029 -2.124,-1.543 -3.555,-1.543c-1.431,-0 -2.604,0.514 -3.521,1.543c-0.917,1.028 -1.375,2.347 -1.375,3.957l-0,13.012c-0,1.655 0.458,2.985 1.375,3.991c0.917,1.006 2.09,1.509 3.521,1.509Z" style="fill-rule:nonzero;"/><path d="M281.03,104.402c-3.443,-0 -6.182,-0.962 -8.217,-2.884c-2.034,-1.923 -3.052,-4.517 -3.052,-7.781l0,-13.885c0,-3.174 1.018,-5.746 3.052,-7.713c2.035,-1.968 4.774,-2.951 8.217,-2.951c2.28,-0 4.281,0.436 6.003,1.308c1.721,0.872 3.041,2.057 3.957,3.555c0.917,1.498 1.375,3.186 1.375,5.064l0,0.872c0,0.447 -0.223,0.67 -0.67,0.67l-5.098,0.202c-0.447,-0 -0.671,-0.224 -0.671,-0.671l0,-0.671c0,-1.297 -0.469,-2.415 -1.408,-3.354c-0.939,-0.939 -2.102,-1.408 -3.488,-1.408c-1.431,-0 -2.594,0.514 -3.488,1.543c-0.894,1.028 -1.342,2.347 -1.342,3.957l0,13.079c0,1.61 0.448,2.929 1.342,3.958c0.894,1.028 2.057,1.543 3.488,1.543c1.386,-0 2.549,-0.47 3.488,-1.409c0.939,-0.939 1.408,-2.057 1.408,-3.354l0,-0.67c0,-0.448 0.224,-0.671 0.671,-0.671l5.098,0.067c0.447,-0 0.67,0.223 0.67,0.671l0,1.006c0,2.906 -1.028,5.287 -3.085,7.143c-2.057,1.856 -4.807,2.784 -8.25,2.784Z" style="fill-rule:nonzero;"/><path d="M320,88.773c0,0.448 -0.224,0.671 -0.671,0.671l-15.159,0c-0.178,0 -0.268,0.09 -0.268,0.268l0,3.622c0,1.61 0.447,2.929 1.342,3.958c0.894,1.028 2.057,1.543 3.487,1.543c1.253,-0 2.303,-0.381 3.153,-1.141c0.85,-0.76 1.386,-1.744 1.61,-2.951c0.134,-0.358 0.38,-0.537 0.738,-0.537l4.963,0.269c0.224,-0 0.391,0.067 0.503,0.201c0.112,0.134 0.145,0.291 0.101,0.469c-0.313,2.907 -1.42,5.176 -3.32,6.809c-1.901,1.632 -4.483,2.448 -7.748,2.448c-3.443,-0 -6.182,-0.962 -8.216,-2.884c-2.035,-1.923 -3.052,-4.494 -3.052,-7.714l-0,-13.952c-0,-3.174 1.017,-5.746 3.052,-7.713c2.034,-1.968 4.773,-2.951 8.216,-2.951c3.488,-0 6.238,0.983 8.251,2.951c2.012,1.967 3.018,4.539 3.018,7.713l0,8.921Zm-11.269,-14.018c-1.43,-0 -2.593,0.514 -3.487,1.543c-0.895,1.028 -1.342,2.347 -1.342,3.957l0,3.555c0,0.179 0.09,0.268 0.268,0.268l9.19,0c0.178,0 0.268,-0.089 0.268,-0.268l-0,-3.555c-0,-1.61 -0.447,-2.929 -1.342,-3.957c-0.894,-1.029 -2.079,-1.543 -3.555,-1.543Z" style="fill-rule:nonzero;"/><path d="M300.817,65.163c-0.269,0 -0.436,-0.078 -0.503,-0.235c-0.067,-0.156 -0.034,-0.346 0.1,-0.57l4.36,-6.975c0.224,-0.313 0.492,-0.47 0.805,-0.47l5.701,0c0.313,0 0.582,0.157 0.805,0.47l4.561,6.975c0.09,0.179 0.134,0.313 0.134,0.403c0,0.268 -0.178,0.402 -0.536,0.402l-4.092,0c-0.313,0 -0.581,-0.156 -0.805,-0.469l-2.616,-4.561c-0.044,-0.09 -0.111,-0.135 -0.201,-0.135c-0.089,0 -0.156,0.045 -0.201,0.135l-2.616,4.561c-0.223,0.313 -0.492,0.469 -0.805,0.469l-4.091,0Z" style="fill-rule:nonzero;"/><path d="M83.289,1.195c-0,-0.317 -0.126,-0.621 -0.35,-0.845c-0.224,-0.224 -0.528,-0.35 -0.845,-0.35c-0.298,0 -0.616,0 -0.914,0c-0.317,-0 -0.62,0.126 -0.845,0.35c-0.224,0.224 -0.35,0.528 -0.35,0.845c0,10.788 0,91.223 0,102.012c0,0.317 0.126,0.621 0.35,0.845c0.225,0.224 0.528,0.35 0.845,0.35c0.298,-0 0.616,-0 0.914,-0c0.317,-0 0.621,-0.126 0.845,-0.35c0.224,-0.224 0.35,-0.528 0.35,-0.845c-0,-10.789 -0,-91.224 -0,-102.012Z"/><path d="M43.381,30.619c0,-0.619 0.246,-1.212 0.683,-1.65c0.438,-0.437 1.031,-0.683 1.65,-0.683l4.127,0c1.288,0 2.333,1.045 2.333,2.333c-0,10.045 -0,49.563 -0,59.608c-0,0.619 -0.246,1.212 -0.683,1.649c-0.438,0.438 -1.031,0.683 -1.65,0.683c-6.298,0 -23.6,0 -29.892,0c-1.286,0 -2.33,-1.041 -2.333,-2.327c-0.022,-10.033 -0.108,-49.085 -0.108,-49.085c0,-0.123 0.062,-0.199 0.184,-0.23c0.122,-0.03 0.214,0.016 0.275,0.138l15.597,41.929c0.184,0.489 0.52,0.734 1.01,0.734l7.89,-0c0.612,-0 0.917,-0.306 0.917,-0.918l0,-52.181Z"/><path d="M32.333,10.702c1.288,-0 2.332,1.044 2.332,2.332c0,10.035 0,49.031 0,49.031c0,0.184 -0.061,0.291 -0.183,0.321c-0.123,0.031 -0.214,-0.045 -0.275,-0.229l-15.689,-41.929c-0.184,-0.489 -0.52,-0.734 -1.01,-0.734l-7.798,0c-0.612,0 -0.918,0.306 -0.918,0.918c0,-0 0.024,41.76 0.03,52.18c0,0.619 -0.245,1.212 -0.683,1.65c-0.437,0.438 -1.031,0.684 -1.649,0.684c-1.285,-0 -2.874,-0 -4.158,-0c-1.288,-0 -2.332,-1.045 -2.332,-2.333l0,-59.559c0,-1.288 1.044,-2.332 2.332,-2.332c6.314,-0 23.687,-0 30.001,-0Z"/><path d="M208.238,8.52c-0.268,-0 -0.447,-0.079 -0.537,-0.235c-0.089,-0.157 -0.067,-0.347 0.068,-0.57l4.159,-7.245c0.223,-0.313 0.492,-0.47 0.805,-0.47l4.092,0c0.268,0 0.447,0.078 0.537,0.235c0.089,0.156 0.067,0.346 -0.068,0.57l-4.964,7.312c-0.179,0.268 -0.447,0.403 -0.805,0.403l-3.287,-0Z" style="fill-rule:nonzero;"/><path d="M257.612,46.959c-0.447,-0 -0.671,-0.224 -0.671,-0.671l0,-32.804c0,-0.447 0.224,-0.671 0.671,-0.671l5.098,0c0.448,0 0.671,0.224 0.671,0.671l0,32.804c0,0.447 -0.223,0.671 -0.671,0.671l-5.098,-0Z" style="fill-rule:nonzero;"/><path d="M260.094,8.587c-1.252,-0 -2.281,-0.403 -3.086,-1.208c-0.805,-0.805 -1.207,-1.833 -1.207,-3.086c-0,-1.252 0.402,-2.28 1.207,-3.085c0.805,-0.805 1.834,-1.208 3.086,-1.208c1.297,0 2.337,0.391 3.119,1.174c0.783,0.783 1.174,1.822 1.174,3.119c0,1.253 -0.402,2.281 -1.207,3.086c-0.805,0.805 -1.834,1.208 -3.086,1.208Z" style="fill-rule:nonzero;"/></g></g></svg>